<svg id="facebook-icon" xmlns="http://www.w3.org/2000/svg" width="25.469" height="25.469" viewBox="0 0 25.469 25.469">
  <path id="Path_687" data-name="Path 687" d="M24.063,25.469a1.406,1.406,0,0,0,1.406-1.406V1.406A1.406,1.406,0,0,0,24.063,0H1.406A1.405,1.405,0,0,0,0,1.406V24.063a1.406,1.406,0,0,0,1.406,1.406H24.063Z" fill="#485a96"/>
  <path id="Path_688" data-name="Path 688" d="M115.063,61.932V52.069h3.311l.5-3.844h-3.806V45.771c0-1.113.309-1.871,1.9-1.871H119V40.461a27.236,27.236,0,0,0-2.966-.151c-2.935,0-4.944,1.791-4.944,5.081v2.835h-3.319v3.844h3.319v9.863h3.969Z" transform="translate(-97.489 -36.463)" fill="#fff"/>
</svg>
