<svg id="erv1YWqF3V51" xmlns="http://www.w3.org/2000/svg" xmlns:xlink="http://www.w3.org/1999/xlink" viewBox="0 0 600 600" shape-rendering="geometricPrecision" text-rendering="geometricPrecision"><path d="M313.52977,129.88575c-15.01405-3.00281-30.62924-11.31233-45.09922-12.62778-59.00118-5.36374-130.41932,18.11309-174.98497,57.727C44.15192,218.80156,9.63564,377.66698,33.91461,438.36441c6.70283,16.75707,20.70043,27.32503,34.27541,37.88334c36.6333,28.49257,110.80564,53.5292,156.94528,39.68731c31.74977-9.52493,78.154444-47.18851,104.630184-70.35478c15.06822-13.1847,51.171981-39.063268,70.354781-46.90319c34.598777-14.140362,22.613097,148.751425,66.746843,92.002405c10.920762-14.042373,34.681212-75.315425,39.687312-92.002405c7.21018-24.03393,33.109579-135.395799,28.863499-158.749249-1.79313-9.86222-10.920859-42.478181-18.039689-48.707151-37.33838-32.67108-88.47476-27.07559-133.49369-36.07937-24.94482-4.98896-21.916091-7.63038-46.903181-12.62779L313.52977,129.88575Z" transform="matrix(.983973-.178318 0.178318 0.983973-46.438988 24.546036)" fill="rgba(175,76,156,0.16)" stroke-width="1.2"/></svg>
