<svg id="instagram-2016" xmlns="http://www.w3.org/2000/svg" xmlns:xlink="http://www.w3.org/1999/xlink" width="25.468" height="25.469" viewBox="0 0 25.468 25.469">
  <defs>
    <radialGradient id="radial-gradient" cx="0.133" cy="1.005" r="1.305" gradientUnits="objectBoundingBox">
      <stop offset="0.09" stop-color="#fa8f21"/>
      <stop offset="0.78" stop-color="#d82d7e"/>
    </radialGradient>
    <radialGradient id="radial-gradient-2" cx="0.606" cy="1.05" r="1.029" gradientUnits="objectBoundingBox">
      <stop offset="0.64" stop-color="#8c3aaa" stop-opacity="0"/>
      <stop offset="1" stop-color="#8c3aaa"/>
    </radialGradient>
  </defs>
  <path id="Path_692" data-name="Path 692" d="M8.49,12.735a4.245,4.245,0,1,1,4.244,4.245A4.245,4.245,0,0,1,8.49,12.735m-2.295,0A6.539,6.539,0,1,0,12.735,6.2,6.539,6.539,0,0,0,6.2,12.735M18,5.936a1.528,1.528,0,1,0,1.529-1.528h0A1.529,1.529,0,0,0,18,5.936M7.59,23.1a7.038,7.038,0,0,1-2.365-.438A3.958,3.958,0,0,1,3.76,21.71a3.929,3.929,0,0,1-.953-1.464,7.032,7.032,0,0,1-.438-2.365c-.062-1.342-.074-1.746-.074-5.146s.013-3.8.074-5.146a7.085,7.085,0,0,1,.438-2.365A3.958,3.958,0,0,1,3.76,3.759a3.925,3.925,0,0,1,1.465-.953A7.032,7.032,0,0,1,7.59,2.368c1.342-.062,1.746-.074,5.145-.074s3.8.013,5.146.074a7.085,7.085,0,0,1,2.365.438,3.945,3.945,0,0,1,1.465.953,3.945,3.945,0,0,1,.953,1.465A7.032,7.032,0,0,1,23.1,7.588c.062,1.343.074,1.746.074,5.146s-.012,3.8-.074,5.146a7.065,7.065,0,0,1-.438,2.365,4.216,4.216,0,0,1-2.417,2.416,7.032,7.032,0,0,1-2.365.438c-1.342.062-1.746.074-5.146.074s-3.8-.012-5.145-.074M7.484.077A9.338,9.338,0,0,0,4.393.669,6.246,6.246,0,0,0,2.137,2.137,6.222,6.222,0,0,0,.669,4.393,9.341,9.341,0,0,0,.077,7.484C.014,8.842,0,9.276,0,12.735s.014,3.892.077,5.25a9.34,9.34,0,0,0,.591,3.091,6.225,6.225,0,0,0,1.469,2.256A6.261,6.261,0,0,0,4.393,24.8a9.346,9.346,0,0,0,3.091.591c1.359.062,1.792.077,5.25.077s3.892-.014,5.25-.077a9.34,9.34,0,0,0,3.091-.591A6.511,6.511,0,0,0,24.8,21.076a9.314,9.314,0,0,0,.591-3.091c.062-1.359.076-1.792.076-5.25s-.014-3.892-.076-5.25A9.337,9.337,0,0,0,24.8,4.393a6.262,6.262,0,0,0-1.469-2.256A6.231,6.231,0,0,0,21.077.669,9.325,9.325,0,0,0,17.986.077C16.628.015,16.194,0,12.736,0S8.843.014,7.484.077" transform="translate(0)" fill="url(#radial-gradient)"/>
  <path id="Path_693" data-name="Path 693" d="M8.49,12.735a4.245,4.245,0,1,1,4.244,4.245A4.245,4.245,0,0,1,8.49,12.735m-2.295,0A6.539,6.539,0,1,0,12.735,6.2,6.539,6.539,0,0,0,6.2,12.735M18,5.936a1.528,1.528,0,1,0,1.529-1.528h0A1.529,1.529,0,0,0,18,5.936M7.59,23.1a7.038,7.038,0,0,1-2.365-.438A3.958,3.958,0,0,1,3.76,21.71a3.929,3.929,0,0,1-.953-1.464,7.032,7.032,0,0,1-.438-2.365c-.062-1.342-.074-1.746-.074-5.146s.013-3.8.074-5.146a7.085,7.085,0,0,1,.438-2.365A3.958,3.958,0,0,1,3.76,3.759a3.925,3.925,0,0,1,1.465-.953A7.032,7.032,0,0,1,7.59,2.368c1.342-.062,1.746-.074,5.145-.074s3.8.013,5.146.074a7.085,7.085,0,0,1,2.365.438,3.945,3.945,0,0,1,1.465.953,3.945,3.945,0,0,1,.953,1.465A7.032,7.032,0,0,1,23.1,7.588c.062,1.343.074,1.746.074,5.146s-.012,3.8-.074,5.146a7.065,7.065,0,0,1-.438,2.365,4.216,4.216,0,0,1-2.417,2.416,7.032,7.032,0,0,1-2.365.438c-1.342.062-1.746.074-5.146.074s-3.8-.012-5.145-.074M7.484.077A9.338,9.338,0,0,0,4.393.669,6.246,6.246,0,0,0,2.137,2.137,6.222,6.222,0,0,0,.669,4.393,9.341,9.341,0,0,0,.077,7.484C.014,8.842,0,9.276,0,12.735s.014,3.892.077,5.25a9.34,9.34,0,0,0,.591,3.091,6.225,6.225,0,0,0,1.469,2.256A6.261,6.261,0,0,0,4.393,24.8a9.346,9.346,0,0,0,3.091.591c1.359.062,1.792.077,5.25.077s3.892-.014,5.25-.077a9.34,9.34,0,0,0,3.091-.591A6.511,6.511,0,0,0,24.8,21.076a9.314,9.314,0,0,0,.591-3.091c.062-1.359.076-1.792.076-5.25s-.014-3.892-.076-5.25A9.337,9.337,0,0,0,24.8,4.393a6.262,6.262,0,0,0-1.469-2.256A6.231,6.231,0,0,0,21.077.669,9.325,9.325,0,0,0,17.986.077C16.628.015,16.194,0,12.736,0S8.843.014,7.484.077" transform="translate(0)" fill="url(#radial-gradient-2)"/>
</svg>
