<svg id="twitter-3" xmlns="http://www.w3.org/2000/svg" width="25.071" height="26.265" viewBox="0 0 25.071 26.265">
  <ellipse id="Ellipse_19" data-name="Ellipse 19" cx="12.536" cy="13.132" rx="12.536" ry="13.132" fill="#2daae1"/>
  <path id="Path_691" data-name="Path 691" d="M248.344,144.883a6.647,6.647,0,0,1-1.912.524,3.339,3.339,0,0,0,1.464-1.842,6.652,6.652,0,0,1-2.115.808,3.331,3.331,0,0,0-5.759,2.278,3.369,3.369,0,0,0,.086.759,9.453,9.453,0,0,1-6.862-3.478,3.333,3.333,0,0,0,1.03,4.445,3.315,3.315,0,0,1-1.508-.416V148a3.331,3.331,0,0,0,2.671,3.264,3.313,3.313,0,0,1-.877.117,3.381,3.381,0,0,1-.627-.059,3.333,3.333,0,0,0,3.11,2.312,6.7,6.7,0,0,1-4.929,1.378,9.468,9.468,0,0,0,14.576-7.976q0-.217-.01-.431A6.786,6.786,0,0,0,248.344,144.883Z" transform="translate(-227.893 -136.785)" fill="#fff"/>
</svg>
